<?xml version="1.0" encoding="UTF-8"?>
<svg id="Layer_2" data-name="Layer 2" xmlns="http://www.w3.org/2000/svg" xmlns:xlink="http://www.w3.org/1999/xlink" viewBox="0 0 631.57 149.39">
  <defs>
    <style>
      .cls-1 {
        fill: #e59600;
      }

      .cls-1, .cls-2, .cls-3, .cls-4, .cls-5, .cls-6, .cls-7, .cls-8, .cls-9, .cls-10, .cls-11, .cls-12, .cls-13, .cls-14, .cls-15, .cls-16, .cls-17, .cls-18, .cls-19, .cls-20, .cls-21, .cls-22, .cls-23, .cls-24, .cls-25, .cls-26, .cls-27, .cls-28, .cls-29, .cls-30, .cls-31, .cls-32, .cls-33, .cls-34, .cls-35, .cls-36, .cls-37, .cls-38, .cls-39, .cls-40, .cls-41 {
        stroke-width: 0px;
      }

      .cls-2 {
        fill: #543930;
      }

      .cls-3 {
        fill: url(#radial-gradient-16);
      }

      .cls-4 {
        fill: url(#linear-gradient);
      }

      .cls-5 {
        fill: #603913;
      }

      .cls-6 {
        fill: url(#linear-gradient-6);
      }

      .cls-7 {
        fill: url(#radial-gradient-8);
      }

      .cls-8 {
        fill: #00aeef;
      }

      .cls-9 {
        fill: #3a300a;
      }

      .cls-10 {
        fill: url(#radial-gradient-13);
      }

      .cls-11 {
        fill: #9e9e9e;
      }

      .cls-12 {
        fill: url(#radial-gradient-12);
      }

      .cls-13 {
        fill: url(#linear-gradient-5);
      }

      .cls-14 {
        fill: #f8f8f7;
      }

      .cls-15 {
        fill: #ef4136;
      }

      .cls-16 {
        fill: #eda600;
      }

      .cls-17 {
        fill: #fff200;
      }

      .cls-18 {
        fill: url(#linear-gradient-2);
      }

      .cls-19 {
        fill: url(#radial-gradient-17);
      }

      .cls-20 {
        fill: #a7a9ac;
      }

      .cls-21 {
        fill: url(#linear-gradient-7);
      }

      .cls-22 {
        fill: url(#radial-gradient-2);
      }

      .cls-23 {
        fill: url(#radial-gradient-7);
      }

      .cls-24 {
        fill: url(#linear-gradient-3);
      }

      .cls-25 {
        fill: url(#radial-gradient-5);
      }

      .cls-26 {
        fill: url(#radial-gradient);
      }

      .cls-27 {
        fill: #d1d3d4;
      }

      .cls-28 {
        fill: url(#radial-gradient-14);
      }

      .cls-29 {
        fill: #404040;
      }

      .cls-30 {
        fill: url(#radial-gradient-10);
      }

      .cls-31 {
        fill: #00c853;
      }

      .cls-32 {
        fill: url(#radial-gradient-6);
      }

      .cls-33 {
        fill: #6d4c41;
      }

      .cls-34 {
        fill: url(#radial-gradient-15);
      }

      .cls-35 {
        fill: url(#radial-gradient-9);
      }

      .cls-36 {
        fill: url(#radial-gradient-3);
      }

      .cls-37 {
        fill: url(#radial-gradient-11);
      }

      .cls-38 {
        fill: url(#linear-gradient-4);
      }

      .cls-39 {
        fill: url(#radial-gradient-4);
      }

      .cls-40 {
        fill: #795548;
      }

      .cls-41 {
        fill: #ffca28;
      }
    </style>
    <radialGradient id="radial-gradient" cx="116.61" cy="-261.35" fx="116.61" fy="-261.35" r="22.9" gradientTransform="translate(-40.95 -38.1) scale(1 -.49)" gradientUnits="userSpaceOnUse">
      <stop offset=".73" stop-color="#6d4c41" stop-opacity="0"/>
      <stop offset="1" stop-color="#6d4c41"/>
    </radialGradient>
    <radialGradient id="radial-gradient-2" cx="-541.9" cy="1030.92" fx="-541.9" fy="1030.92" r="6.77" gradientTransform="translate(-716.7 -376.15) rotate(154.92) scale(1 -.74)" gradientUnits="userSpaceOnUse">
      <stop offset=".66" stop-color="#6d4c41"/>
      <stop offset="1" stop-color="#6d4c41" stop-opacity="0"/>
    </radialGradient>
    <radialGradient id="radial-gradient-3" cx="-651.5" cy="-75.66" fx="-651.5" fy="-75.66" r="28.84" gradientTransform="translate(-30.7 -576.73) rotate(-94.28) scale(1 -.83)" gradientUnits="userSpaceOnUse">
      <stop offset=".72" stop-color="#6d4c41" stop-opacity="0"/>
      <stop offset="1" stop-color="#6d4c41"/>
    </radialGradient>
    <radialGradient id="radial-gradient-4" cx="-660.9" cy="897.34" fx="-660.9" fy="897.34" r="29.07" gradientTransform="translate(-654.44 -646.75) rotate(-85.72) scale(1 .83)" xlink:href="#radial-gradient-3"/>
    <radialGradient id="radial-gradient-5" cx="-766.78" fx="-766.78" r="22.9" gradientTransform="translate(-719.62 -38.1) rotate(-180) scale(1 .49)" xlink:href="#radial-gradient"/>
    <radialGradient id="radial-gradient-6" cx="124.69" cy="566.26" fx="124.69" fy="566.26" r="6.77" gradientTransform="translate(89.7 -346.45) rotate(25.08) scale(1 .74)" xlink:href="#radial-gradient-2"/>
    <radialGradient id="radial-gradient-7" cx="62.1" cy="1002.71" fx="62.1" fy="1002.71" r="65.87" gradientTransform="translate(0 -454.99) scale(1 .59)" gradientUnits="userSpaceOnUse">
      <stop offset=".56" stop-color="#f8f8f7"/>
      <stop offset="1" stop-color="#c6c6c6"/>
    </radialGradient>
    <radialGradient id="radial-gradient-8" cx="-46.24" cy="1000.94" fx="-46.24" fy="1000.94" r="19.51" gradientTransform="translate(-102.53 -614.22) rotate(-15.62) scale(1 .76)" gradientUnits="userSpaceOnUse">
      <stop offset=".15" stop-color="#bdbdbd"/>
      <stop offset="1" stop-color="#bdbdbd" stop-opacity="0"/>
    </radialGradient>
    <linearGradient id="linear-gradient" x1="56.09" y1="771.16" x2="56.09" y2="749.59" gradientTransform="translate(0 -640)" gradientUnits="userSpaceOnUse">
      <stop offset=".3" stop-color="#bdbdbd"/>
      <stop offset=".66" stop-color="#cdcdcd"/>
      <stop offset="1" stop-color="#e0e0e0"/>
    </linearGradient>
    <radialGradient id="radial-gradient-9" cx="61.66" cy="1120.17" fx="61.66" fy="1120.17" r="53.5" gradientTransform="translate(0 -441.76) scale(1 .42)" gradientUnits="userSpaceOnUse">
      <stop offset=".46" stop-color="#fafafa"/>
      <stop offset=".63" stop-color="#eaeaea"/>
      <stop offset=".97" stop-color="#c1c1c1"/>
      <stop offset="1" stop-color="#bdbdbd"/>
    </radialGradient>
    <radialGradient id="radial-gradient-10" cx="63.39" cy="688.05" fx="63.39" fy="688.05" r="39.76" gradientTransform="translate(2.27 -629.34) rotate(.37) scale(1 .98)" gradientUnits="userSpaceOnUse">
      <stop offset=".3" stop-color="#f8f8f7"/>
      <stop offset=".5" stop-color="#e8e8e7"/>
      <stop offset=".9" stop-color="#bfbfbf"/>
      <stop offset="1" stop-color="#b3b3b3"/>
    </radialGradient>
    <linearGradient id="linear-gradient-2" x1="37.17" y1="658.87" x2="44.5" y2="679.9" gradientTransform="translate(0 -640)" gradientUnits="userSpaceOnUse">
      <stop offset="0" stop-color="#757575" stop-opacity="0"/>
      <stop offset="1" stop-color="#757575" stop-opacity=".9"/>
    </linearGradient>
    <linearGradient id="linear-gradient-3" x1="19.2" y1="667.3" x2="33.38" y2="682.09" xlink:href="#linear-gradient-2"/>
    <linearGradient id="linear-gradient-4" x1="-532.27" y1="658.87" x2="-524.94" y2="679.9" gradientTransform="translate(-446.64 -640) rotate(-180) scale(1 -1)" xlink:href="#linear-gradient-2"/>
    <linearGradient id="linear-gradient-5" x1="-550.24" y1="667.3" x2="-536.06" y2="682.1" gradientTransform="translate(-446.64 -640) rotate(-180) scale(1 -1)" xlink:href="#linear-gradient-2"/>
    <linearGradient id="linear-gradient-6" x1="61.41" y1="657.2" x2="61.41" y2="677.5" xlink:href="#linear-gradient-2"/>
    <radialGradient id="radial-gradient-11" cx="-701.08" cy="686.06" fx="-701.08" fy="686.06" r="19.79" gradientTransform="translate(-649.09 -560.69) rotate(-91.42) scale(1 1.06)" gradientUnits="userSpaceOnUse">
      <stop offset=".31" stop-color="#ffca28"/>
      <stop offset="1" stop-color="#ffb300"/>
    </radialGradient>
    <radialGradient id="radial-gradient-12" cx="-16.54" cy="879.39" fx="-16.54" fy="879.39" r="14.5" gradientTransform="translate(-169.03 -714.24) rotate(-20.03)" gradientUnits="userSpaceOnUse">
      <stop offset="0" stop-color="#ffb300"/>
      <stop offset="1" stop-color="#ffca28"/>
    </radialGradient>
    <radialGradient id="radial-gradient-13" cx="104.29" cy="758.98" fx="104.29" fy="758.98" r="13.25" gradientTransform="translate(-2.09 -641.37) rotate(-.27)" xlink:href="#radial-gradient-12"/>
    <radialGradient id="radial-gradient-14" cx="152.96" cy="673.87" fx="152.96" fy="673.87" r="14.49" gradientTransform="translate(77.23 -580.49) rotate(9.97) scale(1.03 1) skewX(-.22)" xlink:href="#radial-gradient-12"/>
    <radialGradient id="radial-gradient-15" cx="101.89" cy="781.57" fx="101.89" fy="781.57" r="16.49" gradientTransform="translate(-24.87 -655.93) rotate(-3.19)" xlink:href="#radial-gradient-12"/>
    <radialGradient id="radial-gradient-16" cx="147.84" cy="722.77" fx="147.84" fy="722.77" r="15.75" gradientTransform="translate(34.99 -613.7) rotate(4.96)" xlink:href="#radial-gradient-12"/>
    <radialGradient id="radial-gradient-17" cx="40.52" cy="838.5" fx="40.52" fy="838.5" r="15.76" gradientTransform="translate(-100.46 -692.63) rotate(-12.37)" xlink:href="#radial-gradient-12"/>
    <linearGradient id="linear-gradient-7" x1="97.28" y1="737.41" x2="96.74" y2="781.9" gradientTransform="translate(0 -640)" gradientUnits="userSpaceOnUse">
      <stop offset="0" stop-color="#ffdbb5"/>
      <stop offset="1" stop-color="#a97c50"/>
    </linearGradient>
  </defs>
  <g id="color-chef-logo">
    <g id="Chef">
      <g id="Outline">
        <path class="cls-9" d="m73.69,138.42c-.78,0-1.53-.13-2.23-.37H13.94c-3.78,0-6.85-3.06-6.85-6.85v-3.35c0-11.04,7.83-19.73,21.93-24.85-.48-.39-.92-.77-1.3-1.12-2.24-.36-4.23-1.07-5.95-2.12-3.8-2.32-5.35-6.14-5.62-6.88-.75-2.04-.62-4.32.58-6.13.53-.8,1.19-1.47,1.95-1.98-.17-.2-.53-.64-.55-.66h0c-5.72-7.03-6.65-15.15-2.76-24.15l.16-.37c.46-1.03.91-1.94,1.32-2.78.15-.31.34-.68.5-1.02l-.43-3.39c-8.05-6.53-9.08-10.3-9.44-11.61-2.25-8.29,1.54-16.85,9.86-22.36,10.92-7.24,26.94-11.4,43.95-11.4s32.81,4.15,43.73,11.4c8.32,5.51,12.1,14.07,9.85,22.33-.35,1.31-1.38,5.08-9.41,11.61l-.47,3.15c.21.43.46.92.69,1.38.5.99,1.06,2.11,1.62,3.34.63,1.27,1.14,2.5,1.53,3.71.29-.62,1.16-2.69,1.44-3.62.94-3,3.39-5.18,6.4-5.75.52-.1,1.05-.15,1.57-.15,2.43,0,4.7,1.04,6.28,2.86.08.09.16.18.22.26,2.9,3.58,8.9,10.99,5.89,21.42-.29,1.05-.72,2.05-1.34,3.15-.32.55-.65,1.06-1.02,1.55-.31.42-.66.83-1.03,1.21-.76.79-1.6,1.5-2.51,2.09l-3.73,12.12c7.91,9.19,8.35,23.58.59,36.1-1.25,2.01-3.45,3.24-5.82,3.24h-42.09Zm30.64-53.41l.05-.17s-.08.08-.13.11c.03.02.05.04.08.06Z"/>
        <path class="cls-9" d="m61.29,13.86c16.01,0,30.51,4,39.95,10.26,5.94,3.93,8.46,9.57,7.03,14.84-.87,3.19-6.93,8-9.18,9.7,0,0,0,0,0,0l-1.13,7.61s-.02,0-.02,0c0,0,0,.01,0,.01.03.1.04.19.06.28.04.08.06.14.06.14,0,.02,0,.04,0,.06.56,1.53,1.86,3.8,3.05,6.41.53,1.06,1.02,2.22,1.37,3.47,1.58,4.82,1.72,10.15-3.86,14.03-.7.79-2.84,2.9-3.35,4.65h0c-.21.67-.24,1.32-.06,1.96.08.26.17.51.31.75,1.18,2.16,4.71,2.47,4.71,2.47,0,0-.81,2.21-2.77,3.4-1.81,1.11-4.04,1.36-5.57,1.4,0,0-3.65,5.05-12.69,7.28,0,0,0,0,0,0l-.41,3.23c1.41.24,2.8.5,4.16.81,2.62-2.97,5.79-5.43,9.63-7.02,3.5-1.44,6.79-2.09,9.79-2.09,1.89,0,3.67.26,5.32.75l3.43-12.11h.02s1.61-5.65,1.61-5.65c-.86-.83-1.46-1.88-1.72-3.1-.09-.36-.14-.73-.16-1.12-.07-1.12.19-2.33.76-3.69.51-1.19,1.21-2.24,1.89-3.26.51-.77.99-1.51,1.4-2.28.31-.63,1.45-3.28,1.9-4.75.17-.53.6-.92,1.13-1.02.1-.02.2-.03.29-.03.44,0,.86.19,1.14.55l.04.04c2.49,3.08,6.67,8.21,4.63,15.25-.15.54-.38,1.06-.71,1.64-.16.27-.33.54-.52.78-.17.22-.35.44-.54.64-.9.95-2.02,1.61-3.21,1.95l-2.49,8.09h0s-3.35,10.89-3.35,10.89c7.74,6,9.92,18.6,2.55,30.48h-42.09c-.01-.13,0-.25-.01-.37H13.93v-3.35c0-11.93,13.53-18.92,30.32-21.67l-.45-3.54c-9.19-2.21-12.9-7.33-12.9-7.33-1.54-.04-3.77-.29-5.57-1.4-1.96-1.19-2.77-3.4-2.77-3.4,0,0,3.52-.31,4.7-2.47,1.21-2.22-.39-4.43-2.99-7.28,0,0-.02-.02-.02-.03-.07-.08-.15-.16-.2-.22-.21-.23-.39-.46-.58-.69-.01-.01-.02-.03-.04-.04-5.24-6.43-3.76-12.54-1.79-17.11,0-.02.02-.04.02-.05.04-.1.09-.2.14-.31,1.05-2.37,2.2-4.3,2.52-5.61,0,0,.01-.02.03-.04l-1.01-7.93h0c-2.16-1.62-8.38-6.52-9.27-9.76-1.43-5.27,1.11-10.91,7.04-14.85,9.44-6.26,24.17-10.26,40.17-10.26m0-13.69C42.96.16,25.56,4.74,13.55,12.7,2.85,19.79-2.13,31.5.86,42.54c.78,2.84,2.59,7.03,9.05,12.86-.2.42-.41.87-.62,1.34l-.02.05-.16.36s-.04.09-.06.14c-5.08,11.78-2.73,20.98,1.13,27.38-1.55,3.29-1.73,7.09-.46,10.55.43,1.16,1.8,4.41,4.75,7.4C2.06,111.15.24,122.16.24,127.85v3.35c0,7.56,6.13,13.69,13.69,13.69h56.58c1.02.24,2.08.37,3.18.37h42.09c4.74,0,9.14-2.45,11.64-6.48,5.14-8.28,7.34-17.33,6.37-26.16-.6-5.47-2.4-10.52-5.22-14.83l1.02-3.32c.03-.09.06-.17.08-.26l.96-3.14c.55-.47,1.07-.96,1.57-1.49.54-.57,1.06-1.18,1.54-1.82.53-.69,1.03-1.46,1.48-2.24,0-.02.02-.03.03-.05.89-1.57,1.54-3.1,1.98-4.66,3.97-13.84-4.1-23.81-7.14-27.57-.15-.18-.3-.37-.47-.55-2.66-3.02-6.36-4.85-10.37-5.11,1.26-2.03,1.87-3.71,2.24-5.07,2.99-11.04-1.98-22.75-12.69-29.83C96.79,4.74,79.47.16,61.29.16h0Z"/>
      </g>
      <g>
        <g id="hairGroup">
          <path id="hair" class="cls-2" d="m95.53,88.03c-1.22-2.22-.2-5.1,2.99-7.28,10.49-7.15,1.22-19.31-.47-24.06.03-.06-.84-1.82-.81-1.88l-1.76-.09c-.56-.08-14.81-1.25-34.07-1.26-19.28,0-33.94,1.17-34.5,1.26,0,0-2.59,1.91-2.57,1.97-.99,3.97-9.54,13.66-.05,24.06,2.6,2.85,4.21,5.06,2.99,7.28-1.18,2.16-4.7,2.47-4.7,2.47,0,0,.81,2.21,2.77,3.4,1.81,1.11,4.04,1.36,5.57,1.4,0,0,6.01,8.32,21.74,8.32h17.51c15.73,0,21.74-8.32,21.74-8.32,1.54-.04,3.77-.29,5.57-1.4,1.96-1.19,2.77-3.4,2.77-3.4,0,0-3.53-.31-4.71-2.47Z"/>
          <g id="hairHighlights">
            <path class="cls-26" d="m61.39,103.61v-9.23l27.94-2.21,2.54,3.13s-6.01,8.32-21.74,8.32h-8.74Z"/>
            <path class="cls-22" d="m91.81,91.26c-4.19-6.36,5.1-8.73,5.1-8.73h0c-1.61,2.01-2.35,3.77-1.4,5.5,1.18,2.16,4.7,2.47,4.7,2.47,0,0-4.79,4.26-8.41.76Z"/>
            <path class="cls-36" d="m98.07,56.69c0,3.97,10.59,11.51.7,23.81-.52.65-2.94,2.94-3.49,4.81,0,0-9.33-13.02-12.12-20.66-.56-1.55-1.08-3.13-1.14-4.77-.05-1.23.14-2.7.85-3.75.87-1.28,14.71-.53,14.71-.53,0,.02.49,1.09.49,1.09Z"/>
            <path class="cls-39" d="m24.33,56.69c-.99,3.97-9.44,13.54-.27,23.81.55.62,2.94,2.94,3.49,4.81,0,0,9.33-13.02,12.12-20.66.57-1.55,1.08-3.13,1.14-4.77.05-1.23-.14-2.7-.85-3.75-.87-1.28-1.89-.94-3.36-.94-2.82,0-10.55.41-11.51.41,0,.02-.75,1.09-.75,1.09Z"/>
            <path class="cls-25" d="m61.43,103.61v-9.23l-27.94-2.21-2.54,3.13s6.01,8.32,21.74,8.32h8.74Z"/>
            <path class="cls-32" d="m31.01,91.26c4.19-6.36-5.1-8.73-5.1-8.73h0c1.61,2.01,2.35,3.77,1.4,5.5-1.18,2.16-4.7,2.47-4.7,2.47,0,0,4.79,4.26,8.41.76Z"/>
          </g>
        </g>
        <path class="cls-23" d="m109.3,127.85c0-11.76-13.98-19.49-31.51-22.2v-3.17c-.59,0-8.62,1.65-8.62,1.65h-15.22l-8.74-1.82v3.71c-17.23,2.64-31.28,9.67-31.28,21.83v3.35h95.35v-3.35h0Z"/>
        <g id="neck">
          <path class="cls-1" d="m61.59,97.05h-8.88v6.87s7.81.9,7.81,10.89h2.64c.29-10.99,7.32-10.99,7.32-10.99v-6.76h-8.89Z"/>
        </g>
        <g id="collar">
          <path class="cls-14" d="m61.29,115.61c-.04-.35-.3-3.15-.35-3.61-.53-4.75-3.23-7.66-6.46-8.39l-9.54-2.43c-.62,0-1.12.65-1.12,1.44l1.47,11.63,13.27,3.49,2.74-2.13Z"/>
          <circle class="cls-11" cx="52.11" cy="126.8" r="2.22"/>
          <circle class="cls-11" cx="77.98" cy="126.8" r="2.22"/>
          <path class="cls-14" d="m61.74,115.57c.04-.35.3-3.15.35-3.61.53-4.75,3.23-7.66,6.46-8.39l9.54-2.43c.62,0,1.11.65,1.11,1.44l-1.47,11.63-13.27,3.49-2.73-2.13Z"/>
          <path class="cls-7" d="m63.41,112c-2.14-.08-6.06-.8-10.25-.02-10.73,2.02-17.16,10.23-15.74,17.33.14.67.36,1.29.64,1.9h5.55l1.18-9.71c1.37-1.49,18.74-5.61,18.74-5.61l-.12-3.88Z"/>
          <path class="cls-4" d="m62.09,111.97c-.05.42-.19,1.95-.23,2.43l.09.92-15.68,4.49c-1.59.59-2.66,2.1-2.66,3.8v7.6h1.01s1.16-7.1,1.34-8.05.93-1.11,1.37-1.28l17.09-5.11c0-12.34,4.16-13.18,4.16-13.18-3.25.73-5.95,3.64-6.47,8.39Z"/>
        </g>
        <g id="ears">
          <path class="cls-1" d="m88.02,59.3h-53.45c-5.76,0-10.47,5.02-10.47,11.16s4.71,11.16,10.47,11.16h53.45c5.76,0,10.47-5.03,10.47-11.16s-4.71-11.16-10.47-11.16Z"/>
        </g>
        <g id="head">
          <path class="cls-41" d="m61.29,20.8h0c-17.02,0-32.78,18.2-32.78,44.4s16.24,38.93,32.78,38.93,32.78-12.88,32.78-38.93-15.76-44.4-32.78-44.4Z"/>
        </g>
        <g id="hairGroup-2" data-name="hairGroup">
          <path id="hair-2" data-name="hair" class="cls-2" d="m24.37,56.76c.4,3.9,3.06,4.5,3.06,4.5-.45,7.83,1.01,12.65,1.78,14.61.14.34.62.31.7-.04.97-3.88,4.26-17.41,3.94-19.76,0,0,11.09-2.2,21.68-9.99,2.15-1.58,4.49-2.93,6.97-3.92,13.29-5.29,16.07,3.74,16.07,3.74,0,0,9.21-1.77,11.99,11.02,1.05,4.79,1.75,12.47,2.35,17.84.04.38.56.46.7.11.93-2.13,2.79-6.36,3.23-10.67.16-1.52,2.24-3.52,1.1-7.91-1.3-5.02-6.55-28.91-36.78-28.91s-37.42,23.27-36.79,29.4Z"/>
        </g>
        <g id="eyes">
          <ellipse class="cls-29" cx="46.06" cy="67.5" rx="4.82" ry="4.99"/>
          <ellipse class="cls-29" cx="76.52" cy="67.5" rx="4.82" ry="4.99"/>
        </g>
        <path id="mouth" class="cls-40" d="m69.63,84.45c-3.12,1.85-13.33,1.85-16.44,0-1.79-1.07-3.62.57-2.88,2.19.73,1.59,6.3,5.3,11.12,5.3s10.32-3.71,11.05-5.3c.74-1.63-1.07-3.26-2.86-2.19Z"/>
        <g id="eyebrows">
          <path class="cls-33" d="m53.22,58.66c-.91-1.2-3-2.94-7.07-2.94s-6.17,1.75-7.07,2.94c-.4.53-.3,1.14-.02,1.52.25.34,1.02.67,1.86.38s2.48-1.13,5.23-1.15c2.75.02,4.39.87,5.23,1.15s1.6-.03,1.86-.38c.27-.37.38-.99-.02-1.52Z"/>
          <path class="cls-33" d="m83.51,58.66c-.91-1.2-3-2.94-7.07-2.94s-6.17,1.75-7.07,2.94c-.4.53-.3,1.14-.02,1.52.25.34,1.02.67,1.86.38s2.48-1.13,5.23-1.15c2.75.02,4.39.87,5.23,1.15s1.6-.03,1.86-.38c.28-.37.38-.99-.02-1.52Z"/>
        </g>
        <path id="nose" class="cls-1" d="m65.06,76.53c-.11-.04-.21-.07-.31-.08h-6.92c-.11,0-.22.04-.31.08-.63.25-.97.9-.67,1.59.29.69,1.67,2.63,4.45,2.63s4.16-1.95,4.45-2.63c.3-.68-.05-1.34-.67-1.59Z"/>
        <g id="hat">
          <path class="cls-35" d="m101.24,24.11c-9.44-6.26-23.94-10.26-39.95-10.26s-30.74,4-40.17,10.26c-5.94,3.93-8.47,9.57-7.04,14.85,1.08,3.92,10.01,10.31,10.01,10.31,10.91,5.12,11.95-3.61,37.08-3.64,25.13.03,26.17,8.76,37.08,3.64,0,0,8.95-6.39,10.01-10.32,1.43-5.26-1.1-10.9-7.03-14.84Z"/>
          <path class="cls-30" d="m24.37,56.76l-1.03-8.04s6.78-11.04,38.4-11.04,37.36,10.97,37.36,10.97l-1.13,7.61c-24.15-5.34-49.51-4.84-73.59.5Z"/>
          <path class="cls-18" d="m39.44,20.23s2.49,9.53,8.51,18.41c-11.1-.35-13.34-12.32-8.51-18.41Z"/>
          <path class="cls-24" d="m25.16,25.18c.53,5.06.1,10.27,9.23,16.56-12.39,3.74-17.53-7.92-9.23-16.56Z"/>
          <path class="cls-38" d="m83.36,20.23s-2.49,9.53-8.51,18.41c11.1-.35,13.34-12.32,8.51-18.41Z"/>
          <path class="cls-13" d="m97.65,25.18c-.53,5.06-.1,10.27-9.23,16.56,12.39,3.74,17.53-7.92,9.23-16.56Z"/>
          <path class="cls-6" d="m61.41,17.2c1.42,1.69,2.15,3.38,2.68,5.08.52,1.69.73,3.38.74,5.08,0,1.69-.22,3.38-.73,5.08-.53,1.69-1.26,3.38-2.69,5.08-1.43-1.69-2.16-3.38-2.69-5.08-.52-1.69-.73-3.38-.73-5.08,0-1.69.22-3.38.74-5.08.52-1.69,1.25-3.38,2.68-5.08Z"/>
        </g>
        <g id="hand">
          <path id="palm" class="cls-37" d="m103.35,110.09c-1.09.17-2.14.43-3.13.87-1.43.63-8.21-1.44-8.7,5.11-.06,1.81-.28,7.52,1.22,10.34,3.15,5.88,15.22,4.56,16.13,4.71,5.74.95,3.35-17.55.14-19.94-.4-.26-1.06-.61-1.63-.93-1.12-.62-2.89-.33-4.02-.17Z"/>
          <path id="finger" class="cls-12" d="m111.24,127.21l-6.49-.21c-.83-.05-1.53.51-1.67,1.28h0c-.18.84.44,1.64,1.33,1.82l6.42,1.02c1.03.19,2.01-.48,2.13-1.48l.06-.51c.1-1.02-.7-1.9-1.77-1.93Z"/>
          <path id="palm-2" data-name="palm" class="cls-10" d="m102.97,112.87c-.17,0-9.83,7.96-9.83,7.96,0,0,.22,3.89,3.95,7.07,1.06.89,4.1,2.16,5.53,2.21,9.76.36,8.56-17.28.35-17.24Z"/>
          <path id="finger-2" data-name="finger" class="cls-28" d="m91.48,120.39s1.34,1.06,3.33,1.87c6.06,2.47,6.88-4.97,7.03-6.12.79-5.92,6.02-4.55,10.46-4.79.92-.05,4.08-.5,4.96-2.57.93-3.45-2.62-3.44-10.1-3.97-2.03-.15-4.07-.13-6.09.14-9.66,1.24-9.89,11-9.59,15.45Z"/>
          <path id="finger-3" data-name="finger" class="cls-34" d="m113.37,116.7l-9.29.69c-1.25.08-1.28,1.03-1.36,2.21h0c-.11,1.28.04,2.39,1.4,2.48l9.33.54c1.57.1,2.92-1.09,2.92-2.6v-.77c-.04-1.54-1.4-2.71-3-2.55Z"/>
          <path id="finger-4" data-name="finger" class="cls-3" d="m113.3,111.22l-7.98,1.04c-1.19.14-2.04,1.1-2.06,2.23h0c-.04,1.23,1.04,2.23,2.34,2.26l8.07.15c1.51.02,2.75-1.18,2.67-2.63l-.04-.73c-.11-1.48-1.47-2.54-2.99-2.31Z"/>
          <path id="finger-5" data-name="finger" class="cls-19" d="m112.47,122.32l-7.36.33c-1.1.03-1.96.83-2.06,1.86h0c-.14,1.11.76,2.12,1.95,2.25l7.34.74c1.37.14,2.6-.86,2.64-2.18l.02-.67c.03-1.34-1.11-2.42-2.52-2.33Z"/>
          <path id="tone" class="cls-16" d="m113.72,122.64c.12-1.05-8.32-.06-9.35-.93-1.17-1-1.03-2.92.43-3.56,1.64-.72,9.61-.93,9.6-1.38,0-.83-10.75,1.17-10.44-2.22.21-2.3,2.43-2.28,4.07-2.55.98-.17,5.27-.45,5.27-.75s-1.06-.22-1.17-.22c-.78-.08-5.82.16-7.14.56-1.73.53-3.14,2.06-2.65,4.02.08.33.22.63.4.91.34.53-.43,1.97-.53,2.71-.24,1.92.8,2.94.78,3.64,0,.53-.53.9-.67,1.71-.16.9.6,1.92.41,2.98-.07.36-.1.66-.03,1.03.11.56.39,1.05.79,1.45.93.94,2.21,1.06,3.46,1.12.84.05,4.29.25,5.08-.19-1.85-.04-7.45-.18-8.21-2.29-.05-1.44,1.49-1.01,2.44-.91,1.09.11,3.12.16,4.22.06.3-.03,1.57-.17,1.57-.39,0-.34-3.01-.23-3.38-.25-1.35-.06-4.2.14-4.8-1.48-.22-.59-.13-1.32.27-1.82.96-1.22,9.51-.7,9.57-1.24Z"/>
        </g>
        <g id="paint_gear">
          <path class="cls-20" d="m114.11,75.71l-3.5,12.34,1.01.22c1.08.24,2.04.67,2.98,1.09.34.15.67.29,1,.43l.99.4,3.87-12.61-6.35-1.88Z"/>
          <path class="cls-5" d="m116.33,87.98c-.31-.13-.63-.26-.95-.41-.98-.43-2.08-.92-3.34-1.2l-.91-.21-12.84,45.31h5.61l13.26-43.16-.83-.33Z"/>
          <path class="cls-21" d="m102.37,97.51c-3,0-6.29.66-9.79,2.09-7.7,3.18-12.73,9.92-16,17.14-1.66,3.7-2.49,7.32-2.87,11.21-.12,1.19-.14,2.37-.03,3.62h42.09c10.14-16.35,2.22-34.06-13.41-34.06Z"/>
          <path class="cls-8" d="m95.93,107.22c-.33-1.71-1.81-3.24-3.59-3.35-2.03-.14-3.08,1.62-3.59,3.33s-.54,3.68.64,5.13c1.29,1.6,3.64,1.54,4.9-.04.46-.57.8-1.29,1.02-2.05.62-.84.83-1.95.63-3.02Z"/>
          <path class="cls-31" d="m107.05,102.23c-1.69-1.1-4.23-.09-5.72.95-1.67,1.15-2.89,3.4-1.98,5.42.91,1.98,3.33,2.56,5.24,1.79,1.67-.68,3.57-2.51,3.52-4.44.48-1.34.34-2.81-1.07-3.72Z"/>
          <path class="cls-17" d="m112.1,111.33c-1.64-.09-3.39.68-4.66,1.7-1.38,1.11-2.35,2.78-1.46,4.51.82,1.57,2.73,2.13,4.38,1.95,1.55-.17,3.05-1.07,3.91-2.38.31-.47.53-1.03.58-1.58.12-.3.22-.63.25-.98.22-1.86-1.28-3.13-3.01-3.22Z"/>
          <path class="cls-15" d="m108.56,124.36c-.79-1.22-2.33-1.67-3.7-1.94-1.57-.3-3.41-.16-4.65,1.01-1.45,1.36-1.16,3.5.45,4.57.33.22.72.4,1.14.56,1.45,1.1,3.33.77,4.91.19,1.22-.46,2.23-1.54,2.29-2.79,0-.02,0-.03,0-.05.09-.67-.11-1.18-.46-1.55Z"/>
          <path class="cls-8" d="m124.05,77.09c-.15.54-.38,1.06-.71,1.64-.16.27-.33.54-.52.78-1.36,1.8-3.43,2.85-5.54,2.85-.67,0-1.32-.1-1.97-.31-2.27-.75-3.81-2.44-4.29-4.65-.09-.36-.14-.73-.16-1.12-.07-1.12.19-2.33.76-3.69.51-1.19,1.21-2.24,1.89-3.26.51-.77.99-1.51,1.4-2.28.31-.63,1.45-3.28,1.9-4.75.17-.53.6-.92,1.13-1.02.54-.11,1.1.09,1.44.52l.04.04c2.49,3.08,6.67,8.21,4.63,15.25Z"/>
          <path class="cls-27" d="m122.82,79.52c-1.36,1.8-3.43,2.85-5.54,2.85-.67,0-1.32-.1-1.97-.31-2.27-.75-3.81-2.44-4.29-4.65,4.12,2.66,4.66-5.24,9.03-5.18,3.78.05.03,6.43,2.77,7.3Z"/>
        </g>
      </g>
    </g>
    <g id="color_chef" data-name="color chef">
      <path class="cls-41" d="m544.92,92.75c-3.3,0-6.62-.42-9.88-1.24-3.7-.93-7.07-2.58-10.03-4.89-1.33-1.04-2.55-2.22-3.66-3.54-.04.29-.08.56-.12.81-.3,1.8-.99,3.35-2.06,4.63-1.36,1.62-3.18,2.68-5.3,3.1-.78.16-1.69.24-2.8.24h-2.9c-2.74,0-5.03-.29-7.01-.88-2.48-.74-4.56-1.94-6.17-3.55-1.64-1.64-2.81-3.67-3.46-6.03-.03-.12-.06-.24-.09-.36-.06.79-.06,1.04-.07,1.08,0,3.81-1.69,6.12-3.1,7.37-1.76,1.57-4.08,2.37-6.88,2.37h-3.26c-2.76,0-5.09-.33-7.1-1-2.41-.8-4.45-2.06-6.05-3.73-1.08-1.12-1.94-2.4-2.58-3.82-1.4,1.64-3.16,3.16-5.25,4.5-2.28,1.48-5.01,2.68-8.13,3.59-3.1.9-6.61,1.36-10.42,1.36s-7.69-.57-11.48-1.68c-4.22-1.24-8.03-3.38-11.33-6.34-3.31-2.97-5.97-6.91-7.93-11.69-1.92-4.69-2.86-10.21-2.86-16.87,0-2.26.15-4.86.45-7.74.32-3.07.94-6.25,1.84-9.45.93-3.3,2.25-6.58,3.93-9.75,1.82-3.44,4.19-6.56,7.05-9.27,2.95-2.79,6.55-5.05,10.7-6.72,4.17-1.67,9.05-2.52,14.52-2.52,4.37,0,8.32.56,11.72,1.65,3.63,1.17,6.76,2.86,9.28,5.03.17.14.33.29.49.44.17-1.76.7-4.3,2.7-6.31,2.63-2.62,6-2.62,7.11-2.62h3.53c2.74,0,5.08.35,7.16,1.08,2.35.82,4.34,2.04,5.92,3.61,1.62,1.62,2.8,3.53,3.49,5.68.56,1.74.84,3.56.84,5.41,0,.27,0,.58-.01.93,1.67-.28,3.44-.42,5.31-.42,3.28,0,6.25.38,8.83,1.13,3.23.94,6,2.59,8.22,4.92,1.84,1.93,3.25,4.29,4.23,7.03,1.35-1.88,2.94-3.62,4.74-5.21,2.7-2.37,5.95-4.3,9.66-5.71,3.74-1.43,8.11-2.16,12.99-2.16,4.04,0,7.47.49,10.49,1.5,3.25,1.08,6,2.66,8.17,4.67.51.47.98.97,1.43,1.48.51-3.41,1.31-6.41,2.43-9.08,1.58-3.76,3.75-6.88,6.46-9.27,2.72-2.4,5.96-4.13,9.63-5.15,3.19-.88,6.73-1.33,10.5-1.33s6.89.35,9.7,1.06c3.12.79,5.79,1.98,7.94,3.54,2.46,1.79,4.3,4.01,5.48,6.6,1.08,2.38,1.62,4.92,1.62,7.57,0,7.79-4.04,11.69-6.46,13.32-1.64,1.11-3.49,1.94-5.54,2.51l-.33,4.49c-.23,3.37-1.29,6.33-3.17,8.73-2.17,2.76-5.45,4.33-9.8,4.67l-.43,5c-.18,2.11-.34,4.18-.49,6.2-.15,2.07-.29,3.88-.41,5.46-.12,1.61-.23,2.93-.32,3.98-.06.71-.1,1.16-.12,1.36,0,.08,0,.16-.02.24-.23,2.65-1.16,4.82-2.77,6.43-1.8,1.79-4.22,2.71-7.2,2.71h-3.26c-5.71,0-10.07-1.73-12.95-5.15-.87-1.03-1.6-2.19-2.17-3.47-.32.48-.68.95-1.06,1.39-1.84,2.15-4.19,3.88-6.97,5.15-2.32,1.06-4.92,1.84-7.71,2.32-2.55.44-5.07.66-7.5.66Zm21.22-28.18c.32.3.63.61.92.94l.13-1.82c-.34.31-.7.6-1.06.89Zm-125.9-22.02c-.24.44-.44.92-.63,1.44-.44,1.26-.8,2.56-1.05,3.86-.26,1.33-.43,2.61-.5,3.81-.08,1.42-.12,2.63-.12,3.61,0,5.45,1.05,6.91,1.06,6.92.17.22.95.46,2.25.46,1.82,0,2.78-.29,3.18-.46,1.11-.47,2.01-.96,2.7-1.47,1.17-.88,2.21-1.67,3.11-2.37,2.33-1.8,5.01-2.76,7.74-2.76,1.5,0,3,.35,4.36,1.03.12-1.5.25-3.13.39-4.9-3.19,1.6-7.03,2.4-11.45,2.4-2.25,0-4.63-.19-6.8-1.58-2.61-1.65-4.14-4.53-4.18-7.9-.02-.74-.04-1.44-.07-2.1Zm-121.84,50.21c-5.31,0-9.72-.79-13.51-2.41-3.15-1.35-5.85-3.16-8.05-5.39-.22.34-.45.67-.69,1-1.58,2.13-3.69,3.82-6.25,5.01-2.42,1.13-5.3,1.7-8.58,1.7-7.77,0-12.03-3.22-14.24-5.92-1.38-1.68-2.41-3.69-3.12-6.04-1.4,1.79-3,3.43-4.8,4.91-2.72,2.22-5.97,4-9.66,5.26-3.63,1.25-7.84,1.88-12.51,1.88-5.31,0-9.72-.79-13.51-2.41-3.96-1.7-7.22-4.13-9.67-7.22-.51-.64-.98-1.3-1.43-1.99-.32.49-.66.97-1.04,1.46-1.49,1.92-3.44,3.67-5.82,5.21-2.28,1.47-5.01,2.68-8.13,3.59-3.1.9-6.61,1.36-10.42,1.36s-7.69-.57-11.48-1.68c-4.22-1.24-8.03-3.38-11.33-6.34-3.3-2.97-5.97-6.91-7.93-11.69-1.92-4.69-2.86-10.21-2.86-16.87,0-2.25.15-4.86.45-7.74.32-3.07.94-6.25,1.84-9.45.93-3.3,2.25-6.58,3.93-9.75,1.82-3.44,4.19-6.56,7.05-9.27,2.95-2.79,6.55-5.05,10.7-6.72,4.17-1.67,9.05-2.52,14.52-2.52,4.37,0,8.32.56,11.72,1.65,3.64,1.17,6.76,2.86,9.28,5.03,2.68,2.31,4.7,5.08,5.99,8.24.83,2.04,1.38,4.18,1.64,6.39,1.77-1.35,3.73-2.54,5.86-3.56,4.54-2.17,10.07-3.27,16.43-3.27,9.95,0,17.46,2.78,22.31,8.26.21.24.42.49.63.74.3-4.49.6-9.56.91-15.1.07-1.56.22-5,2.78-7.56,2.61-2.61,5.99-2.61,7.1-2.61h3.53c2.73,0,5.08.35,7.16,1.08,2.36.83,4.34,2.04,5.92,3.61,1.62,1.62,2.8,3.53,3.49,5.68.56,1.74.84,3.56.84,5.41,0,1.39-.08,3.26-.24,5.73-.13,1.99-.3,4.23-.51,6.68,2.84-3.58,6.56-6.49,11.05-8.64,4.54-2.17,10.07-3.27,16.43-3.27,9.95,0,17.46,2.78,22.31,8.26.27.3.53.62.79.93,1.13-5.67,5.62-8.28,9.65-8.28h3.53c2.54,0,4.72.3,6.66.92,1.27.4,2.44.92,3.5,1.54.27-.18.55-.35.83-.51,1.76-1.03,3.62-1.78,5.53-2.23,1.74-.41,3.43-.62,5.01-.62,2.06,0,4.14.37,6.18,1.1,2.12.76,4.06,1.91,5.78,3.41,1.86,1.64,3.34,3.68,4.38,6.1,1.01,2.34,1.52,4.99,1.52,7.88,0,2.48-.38,4.88-1.13,7.14-.79,2.36-1.95,4.5-3.46,6.35-1.64,2.02-3.66,3.63-6,4.77-2.39,1.17-5.02,1.76-7.81,1.76-.52,0-1.11-.02-1.76-.06-.84-.06-1.67-.17-2.46-.34-.33-.07-.66-.15-.98-.25-.08,1-.16,2.05-.26,3.16-.21,2.43-.41,4.77-.58,7.01-.18,2.22-.33,4.2-.45,5.92-.16,2.25-.16,2.83-.16,2.89,0,3.19-1.45,6.06-3.98,7.87-1.77,1.27-3.85,1.94-6.01,1.94h-3.26c-2.76,0-5.09-.33-7.1-1-2.41-.8-4.45-2.06-6.05-3.73-1.6-1.67-2.74-3.69-3.36-6-1.32,1.63-2.81,3.13-4.47,4.49-2.72,2.22-5.97,4-9.66,5.26-3.63,1.25-7.84,1.88-12.51,1.88Zm-77.82-39.29c-.21.25-.38.54-.51.86-.41.97-.67,1.98-.79,3.07-.18,1.53-.27,2.79-.27,3.75,0,.89.04,1.62.1,2.21.06-.13.12-.27.18-.41.5-1.23.84-2.56,1.03-3.94.28-2.11.34-3.4.34-4.11,0-.58-.03-1.06-.07-1.44Zm81.41,0c-.21.25-.38.54-.51.86-.41.97-.67,1.98-.79,3.07-.18,1.53-.27,2.79-.27,3.75,0,.89.04,1.62.1,2.21.06-.13.12-.27.18-.41.5-1.23.84-2.56,1.03-3.94.28-2.11.34-3.4.34-4.11,0-.58-.03-1.06-.08-1.44Zm-133.42-10.91c-.24.44-.44.92-.63,1.44-.44,1.26-.8,2.56-1.05,3.86-.26,1.32-.43,2.6-.5,3.81-.08,1.41-.12,2.62-.12,3.61,0,5.45,1.05,6.91,1.06,6.92.17.22.95.45,2.25.45,1.82,0,2.78-.29,3.18-.46,1.11-.47,2.01-.96,2.69-1.47,1.17-.88,2.21-1.67,3.11-2.37,2.33-1.8,5.01-2.76,7.74-2.76.57,0,1.15.05,1.71.15.12-.98.27-1.96.45-2.94-2.61.88-5.57,1.33-8.86,1.33-2.25,0-4.64-.19-6.81-1.58-2.6-1.65-4.13-4.53-4.18-7.89-.02-.74-.04-1.44-.07-2.1Z"/>
      <path class="cls-9" d="m598.84,16c3.01,0,5.59.27,7.73.81,2.14.54,3.87,1.3,5.2,2.26,1.33.97,2.29,2.11,2.89,3.44.6,1.33.9,2.74.9,4.25,0,3.14-.98,5.37-2.94,6.69-1.96,1.33-4.6,1.99-7.92,1.99-.9,0-1.52-.07-1.85-.23-.33-.15-.5-.5-.5-1.04,0-1.99-.18-3.56-.54-4.7-.36-1.14-1.36-1.72-2.99-1.72-1.21,0-2.23.36-3.08,1.09-.84.72-1.54,1.67-2.08,2.85-.54,1.18-.95,2.52-1.22,4.03-.27,1.51-.5,3.05-.68,4.61h10.4c.96,0,1.45.42,1.45,1.27l-.36,4.89c-.12,1.81-.62,3.27-1.49,4.39-.88,1.12-2.67,1.67-5.38,1.67h-5.52c-.12,1.81-.27,3.77-.45,5.88-.18,2.11-.36,4.24-.54,6.38-.18,2.14-.35,4.24-.5,6.29-.15,2.05-.29,3.86-.41,5.43-.12,1.57-.23,2.87-.32,3.89-.09,1.03-.14,1.57-.14,1.63-.06.72-.21,1.21-.45,1.45-.24.24-.75.36-1.54.36h-3.26c-3.26,0-5.53-.77-6.83-2.31-1.3-1.54-1.95-3.84-1.95-6.92,0-.36.05-1.27.14-2.71.09-1.45.21-3.18.36-5.2.15-2.02.32-4.27.5-6.74.18-2.47.36-4.94.54-7.42h-4.25c-.66,0-1-.33-1-1,0-.48.03-1.19.09-2.13.06-.93.12-1.85.18-2.76.06-.72.17-1.46.32-2.22.15-.75.42-1.42.81-1.99.39-.57.98-1.05,1.76-1.45.78-.39,1.81-.62,3.08-.68l.36-3.62c.36-3.92,1.1-7.21,2.22-9.86,1.12-2.65,2.58-4.78,4.39-6.38,1.81-1.6,3.96-2.74,6.47-3.44,2.5-.69,5.29-1.04,8.37-1.04m-120.5.9c1.81,0,3.32.21,4.52.63,1.21.42,2.17,1,2.89,1.72.72.72,1.24,1.55,1.54,2.49.3.94.45,1.92.45,2.94,0,1.09-.11,3.11-.32,6.06-.21,2.96-.47,6.42-.77,10.4,1.81-3.02,3.81-5.1,6.02-6.24,2.2-1.14,4.99-1.72,8.37-1.72,2.53,0,4.73.27,6.6.81,1.87.54,3.42,1.46,4.66,2.76,1.24,1.3,2.16,2.99,2.76,5.07.6,2.08.9,4.66.9,7.73,0,.97-.09,2.62-.27,4.98-.18,2.35-.41,5.04-.68,8.05-.27,3.02-.54,6.17-.81,9.45-.27,3.29-.5,6.29-.68,9-.06.67-.12,1.18-.18,1.54-.06.36-.17.63-.32.81-.15.18-.38.3-.68.36-.3.06-.72.09-1.27.09h-2.9c-1.93,0-3.5-.18-4.7-.54-1.21-.36-2.14-.87-2.8-1.54-.66-.66-1.13-1.49-1.4-2.49-.27-1-.41-2.13-.41-3.39,0-.6.01-1.18.04-1.72.03-.54.08-1.05.14-1.54.18-1.99.38-4.07.59-6.24.21-2.17.39-4.25.54-6.24.15-1.99.29-3.77.41-5.34.12-1.57.18-2.71.18-3.44,0-1.57-.38-2.97-1.13-4.21-.75-1.24-2.22-1.85-4.39-1.85-2.9,0-5.23,1.36-7.01,4.07-1.78,2.71-2.82,6.33-3.12,10.86-.12,1.27-.27,3.03-.45,5.29-.18,2.26-.36,4.55-.54,6.88-.18,2.32-.35,4.4-.5,6.24-.15,1.84-.23,2.97-.23,3.39,0,.72-.14,1.21-.41,1.45-.27.24-.8.36-1.58.36h-3.26c-1.87,0-3.39-.2-4.57-.59-1.18-.39-2.11-.95-2.8-1.67-.69-.72-1.18-1.61-1.45-2.67-.27-1.05-.41-2.28-.41-3.66s.1-3.18.32-5.56c.21-2.38.5-5.67.86-9.86.36-4.19.78-9.54,1.27-16.06.48-6.51,1-14.59,1.54-24.24.06-1.33.21-2.11.45-2.35.18-.18.66-.27,1.45-.27h3.53m-198.29,0c1.81,0,3.32.21,4.52.63,1.21.42,2.17,1,2.89,1.72.72.72,1.24,1.55,1.54,2.49.3.94.45,1.92.45,2.94,0,1.21-.08,2.94-.23,5.2-.15,2.26-.35,4.81-.59,7.64-.24,2.84-.48,5.79-.72,8.87-.24,3.08-.48,6.02-.72,8.82-.24,2.8-.44,5.32-.59,7.55-.15,2.23-.23,3.92-.23,5.07,0,1.57.29,2.68.86,3.35.57.67,1.19,1.13,1.85,1.4.66.27,1.28.45,1.85.54.57.09.86.29.86.59,0,1.33-.15,2.64-.45,3.94-.3,1.3-.85,2.47-1.63,3.53-.78,1.06-1.85,1.9-3.21,2.53-1.36.63-3.09.95-5.2.95-3.74,0-6.42-1-8.05-2.99-1.63-1.99-2.44-5.28-2.44-9.86,0-.72.05-1.63.14-2.71.09-1.09.21-2.49.36-4.21.15-1.72.35-3.84.59-6.38.24-2.53.5-5.61.77-9.23.27-3.62.57-7.87.9-12.76.33-4.88.68-10.55,1.04-17.01.06-1.33.21-2.11.45-2.35.18-.18.66-.27,1.45-.27h3.53m163.46,1.81c3.56,0,6.65.42,9.27,1.27,2.62.85,4.79,2.01,6.51,3.48,1.72,1.48,2.99,3.21,3.8,5.2.81,1.99,1.22,4.1,1.22,6.33,0,3.86-1.13,6.68-3.39,8.46-2.26,1.78-5.47,2.67-9.63,2.67-1.33,0-2.16-.1-2.49-.32-.33-.21-.5-.65-.5-1.31-.06-2.05-.12-3.83-.18-5.34-.06-1.51-.27-2.76-.63-3.75-.36-1-.92-1.72-1.67-2.17-.75-.45-1.79-.68-3.12-.68-1.93,0-3.57.41-4.93,1.22-1.36.81-2.5,1.87-3.44,3.17-.94,1.3-1.69,2.76-2.26,4.39-.57,1.63-1.03,3.29-1.36,4.98-.33,1.69-.54,3.32-.63,4.88-.09,1.57-.14,2.93-.14,4.07,0,5.55.92,9.5,2.76,11.85,1.84,2.35,4.69,3.53,8.55,3.53,2.47,0,4.57-.36,6.29-1.08,1.72-.72,3.18-1.54,4.39-2.44,1.21-.91,2.28-1.72,3.21-2.44.93-.72,1.88-1.09,2.85-1.09,1.21,0,1.81.9,1.81,2.71,0,.97-.12,2.13-.36,3.48-.24,1.36-.57,2.88-1,4.57-.24,1.03-.83,2.14-1.76,3.35-.94,1.21-2.22,2.34-3.84,3.39-1.63,1.06-3.63,1.93-6.02,2.62-2.38.69-5.11,1.04-8.19,1.04s-6.15-.45-9.23-1.36c-3.08-.91-5.82-2.44-8.23-4.61-2.41-2.17-4.37-5.1-5.88-8.78-1.51-3.68-2.26-8.29-2.26-13.84,0-1.99.14-4.3.41-6.92.27-2.62.8-5.32,1.58-8.1.78-2.77,1.88-5.5,3.3-8.19,1.42-2.68,3.24-5.08,5.47-7.19,2.23-2.11,4.96-3.81,8.19-5.11,3.23-1.3,7.07-1.95,11.53-1.95m-251.66,0c3.56,0,6.65.42,9.27,1.27,2.62.85,4.79,2.01,6.51,3.48,1.72,1.48,2.99,3.21,3.8,5.2.81,1.99,1.22,4.1,1.22,6.33,0,3.86-1.13,6.68-3.39,8.46-2.26,1.78-5.47,2.67-9.63,2.67-1.33,0-2.16-.1-2.49-.32-.33-.21-.5-.65-.5-1.31-.06-2.05-.12-3.83-.18-5.34-.06-1.51-.27-2.76-.63-3.75-.36-1-.92-1.72-1.67-2.17-.75-.45-1.8-.68-3.12-.68-1.93,0-3.57.41-4.93,1.22-1.36.81-2.5,1.87-3.44,3.17-.94,1.3-1.69,2.76-2.26,4.39-.57,1.63-1.03,3.29-1.36,4.98-.33,1.69-.54,3.32-.63,4.88-.09,1.57-.14,2.93-.14,4.07,0,5.55.92,9.5,2.76,11.85,1.84,2.35,4.69,3.53,8.55,3.53,2.47,0,4.57-.36,6.29-1.08,1.72-.72,3.18-1.54,4.39-2.44,1.21-.91,2.28-1.72,3.21-2.44.93-.72,1.88-1.09,2.85-1.09,1.21,0,1.81.9,1.81,2.71,0,.97-.12,2.13-.36,3.48-.24,1.36-.57,2.88-1,4.57-.24,1.03-.83,2.14-1.76,3.35-.94,1.21-2.22,2.34-3.84,3.39-1.63,1.06-3.63,1.93-6.02,2.62-2.38.69-5.11,1.04-8.19,1.04s-6.15-.45-9.23-1.36c-3.08-.91-5.82-2.44-8.23-4.61-2.41-2.17-4.37-5.1-5.88-8.78-1.51-3.68-2.26-8.29-2.26-13.84,0-1.99.14-4.3.41-6.92.27-2.62.8-5.32,1.58-8.1.78-2.77,1.88-5.5,3.3-8.19,1.42-2.68,3.24-5.08,5.47-7.19,2.23-2.11,4.96-3.81,8.19-5.11,3.23-1.3,7.07-1.95,11.53-1.95m357.87,14.47c3.13,0,5.79.36,7.96,1.09,2.17.72,3.92,1.71,5.25,2.94,1.33,1.24,2.29,2.67,2.9,4.3.6,1.63.9,3.38.9,5.25,0,2.77-.56,5.13-1.67,7.06-1.12,1.93-2.56,3.54-4.34,4.84-1.78,1.3-3.75,2.31-5.93,3.03-2.17.72-4.31,1.28-6.42,1.67-2.11.39-4.06.63-5.83.72-1.78.09-3.15.13-4.12.13,0,1.15.17,2.28.5,3.39.33,1.12.83,2.1,1.49,2.94.66.84,1.54,1.54,2.62,2.08,1.09.54,2.41.81,3.98.81s2.79-.26,3.66-.77c.87-.51,1.58-1.09,2.13-1.72.54-.63,1.01-1.21,1.4-1.72.39-.51.92-.77,1.58-.77.3,0,.83.08,1.58.23.75.15,1.52.47,2.31.95.78.48,1.48,1.15,2.08,1.99.6.85.91,1.93.91,3.26,0,1.75-.54,3.26-1.63,4.52-1.08,1.27-2.49,2.29-4.21,3.08-1.72.79-3.63,1.36-5.75,1.72-2.11.36-4.16.54-6.15.54-2.65,0-5.29-.33-7.91-1-2.62-.66-4.98-1.81-7.06-3.44-2.08-1.63-3.79-3.8-5.11-6.51-1.33-2.71-1.99-6.12-1.99-10.22,0-1.51.12-3.32.36-5.43.24-2.11.71-4.28,1.4-6.51.69-2.23,1.66-4.45,2.89-6.65,1.24-2.2,2.85-4.18,4.84-5.93,1.99-1.75,4.4-3.17,7.24-4.25,2.83-1.09,6.21-1.63,10.13-1.63m-11.04,23.79c3.74-.06,6.77-.69,9.09-1.9,2.32-1.21,3.48-2.92,3.48-5.16,0-1.21-.38-2.29-1.13-3.26-.75-.96-1.92-1.45-3.48-1.45-1.33,0-2.46.38-3.39,1.13-.94.75-1.72,1.7-2.35,2.85-.63,1.15-1.12,2.41-1.45,3.8-.33,1.39-.59,2.71-.77,3.98m-156.68-23.79c1.15,0,2.31.21,3.48.63,1.18.42,2.25,1.06,3.21,1.9.96.85,1.73,1.93,2.31,3.26.57,1.33.86,2.89.86,4.7,0,1.63-.24,3.17-.72,4.61-.48,1.45-1.18,2.73-2.08,3.84-.9,1.12-2.01,1.99-3.3,2.62-1.3.63-2.73.95-4.3.95-.36,0-.77-.01-1.22-.04-.45-.03-.89-.09-1.31-.18-.42-.09-.78-.21-1.09-.36-.3-.15-.45-.35-.45-.59,0-.78.03-1.51.09-2.17.06-.66.09-1.36.09-2.08,0-1.33-.18-2.41-.54-3.26-.36-.84-1.09-1.27-2.17-1.27-1.69,0-3.09,1.1-4.21,3.3-1.12,2.2-1.83,5.5-2.13,9.91-.12,1.93-.29,4.12-.5,6.56-.21,2.44-.41,4.79-.59,7.06-.18,2.26-.33,4.27-.45,6.02-.12,1.75-.18,2.9-.18,3.44,0,.6-.21,1.06-.63,1.36-.42.3-.88.45-1.36.45h-3.26c-1.87,0-3.39-.2-4.57-.59-1.18-.39-2.11-.95-2.8-1.67-.69-.72-1.18-1.61-1.45-2.67-.27-1.05-.41-2.28-.41-3.66,0-.91.05-2.19.14-3.84.09-1.66.26-3.95.5-6.88.24-2.92.53-6.63.86-11.13.33-4.49.74-10.06,1.22-16.69.12-1.75.75-2.62,1.9-2.62h3.53c1.69,0,3.11.18,4.25.54,1.15.36,2.08.86,2.8,1.49.72.63,1.25,1.37,1.58,2.22.33.85.56,1.72.68,2.62.72-1.39,1.58-2.58,2.58-3.57,1-1,2.04-1.81,3.12-2.44,1.09-.63,2.2-1.09,3.35-1.36,1.15-.27,2.2-.41,3.17-.41m-57.8,0c7.6,0,13.04,1.85,16.33,5.56,3.29,3.71,4.93,8.91,4.93,15.6,0,1.87-.14,3.94-.41,6.2-.27,2.26-.78,4.51-1.54,6.74-.75,2.23-1.78,4.4-3.08,6.51-1.3,2.11-2.94,3.98-4.93,5.61-1.99,1.63-4.39,2.93-7.19,3.89-2.8.96-6.11,1.45-9.91,1.45-4.16,0-7.61-.59-10.36-1.76-2.75-1.18-4.93-2.79-6.56-4.84-1.63-2.05-2.77-4.45-3.44-7.19-.66-2.74-1-5.68-1-8.82,0-3.62.44-7.16,1.31-10.63.87-3.47,2.37-6.56,4.48-9.27,2.11-2.71,4.9-4.9,8.37-6.56,3.47-1.66,7.79-2.49,12.98-2.49m-4.43,39.53c2.11,0,3.84-.66,5.2-1.99,1.36-1.33,2.41-2.92,3.17-4.79.75-1.87,1.27-3.83,1.54-5.88.27-2.05.41-3.77.41-5.16,0-3.01-.56-5.38-1.67-7.1-1.12-1.72-3.03-2.58-5.74-2.58-2.29,0-4.12.59-5.47,1.76-1.36,1.18-2.38,2.59-3.08,4.25-.69,1.66-1.15,3.41-1.36,5.25-.21,1.84-.32,3.39-.32,4.66,0,3.98.63,6.91,1.9,8.77,1.27,1.87,3.08,2.8,5.43,2.8m-76.98-39.53c7.6,0,13.04,1.85,16.33,5.56,3.29,3.71,4.93,8.91,4.93,15.6,0,1.87-.14,3.94-.41,6.2-.27,2.26-.78,4.51-1.54,6.74-.75,2.23-1.78,4.4-3.08,6.51-1.3,2.11-2.94,3.98-4.93,5.61-1.99,1.63-4.39,2.93-7.19,3.89-2.8.96-6.11,1.45-9.91,1.45-4.16,0-7.61-.59-10.36-1.76-2.75-1.18-4.93-2.79-6.56-4.84-1.63-2.05-2.77-4.45-3.44-7.19-.66-2.74-1-5.68-1-8.82,0-3.62.44-7.16,1.31-10.63.87-3.47,2.37-6.56,4.48-9.27,2.11-2.71,4.9-4.9,8.37-6.56,3.47-1.66,7.79-2.49,12.98-2.49m-4.43,39.53c2.11,0,3.84-.66,5.2-1.99,1.36-1.33,2.41-2.92,3.17-4.79.75-1.87,1.27-3.83,1.54-5.88.27-2.05.41-3.77.41-5.16,0-3.01-.56-5.38-1.67-7.1-1.12-1.72-3.03-2.58-5.74-2.58-2.29,0-4.12.59-5.47,1.76-1.36,1.18-2.38,2.59-3.08,4.25-.69,1.66-1.15,3.41-1.36,5.25-.21,1.84-.32,3.39-.32,4.66,0,3.98.63,6.91,1.9,8.77,1.27,1.87,3.08,2.8,5.43,2.8M598.84,0c-4.5,0-8.75.55-12.64,1.62-4.85,1.35-9.15,3.65-12.79,6.86-3.46,3.06-6.24,6.93-8.27,11.51-.78-.33-1.58-.63-2.41-.9-3.85-1.28-8.11-1.91-13.02-1.91-5.87,0-11.2.9-15.85,2.69-3.78,1.45-7.19,3.33-10.18,5.62-3.18-3.25-7.06-5.55-11.56-6.86-2.87-.83-6.05-1.31-9.47-1.42-.04-.12-.08-.25-.11-.37-1.1-3.39-2.93-6.38-5.46-8.9s-5.43-4.28-8.91-5.5c-2.96-1.03-6.17-1.53-9.82-1.53h-3.53c-5.17,0-9.46,1.66-12.74,4.94-.14.14-.28.28-.41.42-1.27-.57-2.59-1.07-3.97-1.52-4.2-1.35-8.97-2.04-14.18-2.04-6.5,0-12.38,1.04-17.5,3.1-5.09,2.05-9.53,4.85-13.22,8.33-3.5,3.31-6.4,7.13-8.63,11.35-.41.78-.8,1.56-1.18,2.35-1.09-1.53-2.35-2.92-3.75-4.15-2.49-2.17-5.29-3.83-8.35-4.93-2.92-1.05-5.91-1.58-8.9-1.58-2.2,0-4.51.28-6.86.84-1.64.39-3.24.93-4.81,1.62-.26-.09-.53-.18-.8-.27-2.73-.86-5.7-1.29-9.07-1.29h-3.53c-4.03,0-8.19,1.43-11.48,4.23-5.72-3.41-12.83-5.13-21.27-5.13-7.19,0-13.58,1.23-19.02,3.65-.2-1.36-.52-2.69-.93-4-1.1-3.4-2.93-6.38-5.46-8.9-2.43-2.43-5.43-4.28-8.91-5.5-2.97-1.04-6.17-1.53-9.82-1.53h-3.53c-5.19,0-9.48,1.67-12.77,4.97-4.68,4.68-5,10.55-5.11,12.85-.02.34-.04.67-.06,1-4.6-1.69-9.88-2.54-15.81-2.54-6.58,0-12.49,1.03-17.62,3.07-1.74-3.37-4.12-6.36-7.09-8.92-3.34-2.87-7.39-5.08-12.04-6.58-4.21-1.35-8.97-2.04-14.18-2.04-6.5,0-12.38,1.04-17.5,3.1-5.09,2.05-9.53,4.85-13.22,8.33-3.5,3.31-6.4,7.13-8.63,11.35-1.93,3.66-3.47,7.47-4.55,11.31-1.03,3.64-1.74,7.27-2.1,10.8-.33,3.2-.49,6-.49,8.57,0,7.72,1.13,14.24,3.46,19.91,2.41,5.9,5.77,10.81,9.98,14.6,4.19,3.77,9.04,6.49,14.42,8.07,4.53,1.33,9.16,2.01,13.74,2.01s8.82-.56,12.65-1.68c3.87-1.13,7.32-2.66,10.26-4.56.82-.53,1.61-1.09,2.37-1.67,2.38,1.94,5.09,3.56,8.1,4.85,4.8,2.06,10.25,3.06,16.66,3.06,5.55,0,10.63-.78,15.11-2.32,3.74-1.28,7.13-3,10.13-5.12,3.55,3.64,9.52,7.35,19.09,7.35,4.45,0,8.48-.82,11.96-2.45,1.57-.73,3.03-1.6,4.37-2.59,1.3.77,2.66,1.46,4.1,2.07,4.8,2.06,10.25,3.06,16.66,3.06,5.55,0,10.63-.78,15.11-2.32,3.65-1.26,6.98-2.93,9.93-4.98,2.36,2.22,5.21,3.89,8.49,4.98,2.83.95,5.99,1.41,9.62,1.41h3.26c3.83,0,7.52-1.19,10.67-3.44,4.63-3.31,7.29-8.51,7.32-14.28,0-.13.03-.75.14-2.42.11-1.66.26-3.57.44-5.85.06-.73.12-1.47.18-2.23,3.24-.25,6.33-1.09,9.21-2.49,1.79-.87,3.45-1.93,4.96-3.16.57,3.66,1.48,7,2.75,10.1,2.41,5.89,5.77,10.81,9.98,14.59,4.19,3.77,9.04,6.49,14.42,8.07,4.53,1.33,9.16,2.01,13.75,2.01s8.82-.56,12.65-1.68c3.8-1.11,7.2-2.61,10.1-4.46,2.08,1.65,4.47,2.93,7.15,3.83,2.83.95,5.98,1.41,9.62,1.41h3.26c5.47,0,9.24-1.99,11.58-3.87,1.77,1.12,3.74,2.01,5.9,2.65,2.72.82,5.76,1.22,9.29,1.22h2.9c1.61,0,3.04-.13,4.39-.4,3.07-.61,5.9-2.03,8.18-4.08,2.91,1.74,6.07,3.05,9.43,3.9,3.89.98,7.87,1.48,11.83,1.48,2.88,0,5.86-.26,8.85-.77,3.47-.6,6.73-1.58,9.69-2.94,1.38-.63,2.68-1.34,3.91-2.15,3.4,2.65,8.49,4.95,15.9,4.95h3.26c6.45,0,10.55-2.75,12.85-5.05,2.05-2.05,4.59-5.69,5.08-11.4.01-.13.02-.25.03-.38.02-.22.05-.62.1-1.2.09-1.08.2-2.43.33-4.06.12-1.6.26-3.42.41-5.49.12-1.67.26-3.41.41-5.29,4.16-1.56,6.88-4.03,8.61-6.23,2.74-3.49,4.39-7.83,4.82-12.59.83-.44,1.64-.92,2.41-1.45,3.72-2.52,9.97-8.46,9.97-19.94,0-3.79-.78-7.44-2.33-10.86-1.77-3.88-4.47-7.16-8.05-9.76-3-2.17-6.59-3.8-10.69-4.84-3.46-.88-7.28-1.31-11.67-1.31h0Z"/>
    </g>
    <g>
      <path class="cls-9" d="m162.9,142.36c-1.37,0-2.34-.27-2.9-.81-.56-.54-.85-1.34-.85-2.4,0-.29.02-.77.05-1.46.04-.68.09-1.5.16-2.43.07-.94.15-1.96.23-3.08.08-1.12.17-2.25.27-3.41.19-2.43.33-4.4.41-5.91.08-1.51.15-2.7.2-3.57.07-1.08.14-1.77.22-2.07.07-.3.23-.45.47-.45.74,0,1.51-.02,2.29-.05.78-.04,1.53-.08,2.25-.13.72-.05,1.4-.09,2.04-.13s1.21-.05,1.71-.05c1.54,0,2.86.19,3.97.58,1.1.38,2,.93,2.69,1.62.69.7,1.19,1.54,1.51,2.52.32.99.49,2.09.49,3.32,0,1.87-.37,3.54-1.12,5.01-.75,1.47-1.93,2.58-3.57,3.35l3.03,4.33c.55.82.97,1.45,1.26,1.89.29.45.43.78.43.99,0,.17-.1.4-.31.7-.2.3-.5.6-.9.9-.4.3-.88.56-1.44.78-.56.22-1.2.32-1.89.32-.77,0-1.44-.25-2-.76-.56-.5-1.07-1.17-1.51-2-.45-.83-.83-1.78-1.15-2.87-.32-1.08-.63-2.21-.92-3.39-.87-.05-1.57-.13-2.13-.25-.07,1.06-.14,2.07-.22,3.03s-.13,1.82-.18,2.58c-.05.76-.1,1.38-.14,1.88-.05.49-.07.79-.07.88-.02.19-.07.33-.14.42-.07.08-.22.13-.43.13h-1.8Zm5.84-20.55c-.29,0-.61.02-.97.05-.36.04-.75.08-1.15.13-.05.84-.1,1.84-.16,3.01s-.14,2.41-.23,3.73c.84.19,1.57.29,2.2.29.74,0,1.35-.14,1.82-.43s.83-.64,1.1-1.06c.26-.42.44-.87.52-1.35.08-.48.13-.91.13-1.3,0-.99-.24-1.74-.72-2.27-.48-.53-1.32-.79-2.52-.79Z"/>
      <path class="cls-9" d="m189.11,142.72c-1.06,0-2.11-.13-3.15-.4-1.05-.26-1.98-.72-2.81-1.37-.83-.65-1.51-1.51-2.04-2.6-.53-1.08-.79-2.44-.79-4.07,0-.6.05-1.32.14-2.16.1-.84.28-1.71.56-2.6.28-.89.66-1.77,1.15-2.65.49-.88,1.14-1.66,1.93-2.36.79-.7,1.75-1.26,2.88-1.7,1.13-.43,2.48-.65,4.04-.65,1.25,0,2.31.14,3.17.43s1.56.68,2.09,1.17c.53.49.91,1.06,1.15,1.71.24.65.36,1.35.36,2.09,0,1.11-.22,2.04-.67,2.81-.44.77-1.02,1.41-1.73,1.93-.71.52-1.5.92-2.36,1.21-.87.29-1.72.51-2.56.67-.84.16-1.62.25-2.33.29-.71.04-1.26.05-1.64.05,0,.46.07.91.2,1.35.13.44.33.83.59,1.17.26.34.61.61,1.05.83.43.22.96.33,1.59.33s1.11-.1,1.46-.31c.35-.2.63-.43.85-.69.22-.25.4-.48.56-.68.16-.2.37-.31.63-.31.12,0,.33.03.63.09.3.06.61.19.92.38.31.19.59.46.83.79.24.34.36.77.36,1.3,0,.7-.22,1.3-.65,1.8s-.99.91-1.68,1.23c-.69.31-1.45.54-2.29.69-.84.14-1.66.22-2.45.22Zm.69-15.75c-.53,0-.98.15-1.35.45-.37.3-.68.68-.94,1.14-.25.46-.45.96-.58,1.51-.13.55-.23,1.08-.31,1.59,1.49-.02,2.7-.28,3.62-.76.92-.48,1.39-1.17,1.39-2.06,0-.48-.15-.91-.45-1.3-.3-.38-.76-.58-1.39-.58Z"/>
      <path class="cls-9" d="m198.88,137.93c0-2.16.97-3.86,2.92-5.08,1.95-1.23,4.82-1.89,8.62-1.98.02-.26.04-.49.05-.67.01-.18.02-.4.02-.67,0-.77-.14-1.38-.43-1.84-.29-.46-.89-.68-1.8-.68-.5,0-.91.07-1.23.22-.31.14-.56.34-.76.59-.19.25-.35.56-.47.92-.12.36-.23.76-.32,1.19-.05.22-.16.35-.32.41-.17.06-.43.09-.79.09-2.45,0-3.68-.92-3.68-2.78,0-.74.17-1.45.52-2.13.35-.67.87-1.26,1.55-1.75s1.54-.88,2.58-1.17c1.03-.29,2.24-.43,3.6-.43,2.67,0,4.6.55,5.8,1.66,1.2,1.11,1.8,2.67,1.8,4.69,0,.26-.03.74-.09,1.42-.06.69-.13,1.41-.22,2.16-.08.76-.16,1.47-.22,2.15s-.09,1.14-.09,1.41c0,.6.11,1.03.32,1.28.22.25.46.43.74.52.28.1.52.17.74.22.22.05.32.17.32.36,0,.53-.07,1.07-.22,1.62-.14.55-.38,1.06-.7,1.51-.32.46-.77.83-1.33,1.12-.56.29-1.26.43-2.07.43-1.15,0-2.02-.28-2.6-.83s-.96-1.32-1.15-2.31c-.58.84-1.33,1.58-2.25,2.2-.93.62-2.13.94-3.62.94-.72,0-1.4-.08-2.04-.25s-1.19-.44-1.66-.83-.84-.88-1.12-1.5c-.28-.61-.41-1.35-.41-2.22Zm11.21-4.11c-.63,0-1.24.05-1.84.14-.6.1-1.14.25-1.6.45s-.85.47-1.14.81c-.29.34-.43.75-.43,1.23,0,.55.17.94.52,1.15.35.22.73.32,1.14.32.38,0,.77-.08,1.15-.25.38-.17.73-.43,1.03-.78.3-.35.56-.77.78-1.28s.35-1.11.4-1.8Z"/>
      <path class="cls-9" d="m226.85,142.72c-.94,0-1.83-.17-2.69-.5-.85-.34-1.6-.87-2.24-1.59s-1.14-1.63-1.51-2.74c-.37-1.1-.56-2.44-.56-4,0-.7.05-1.47.14-2.33.1-.85.26-1.71.5-2.58.24-.87.58-1.71,1.01-2.52.43-.82.98-1.54,1.64-2.18.66-.64,1.45-1.15,2.38-1.53.92-.38,2.01-.58,3.26-.58s2.17.21,2.9.63c.73.42,1.2,1.15,1.39,2.18.05-.94.1-1.75.14-2.45.05-.7.09-1.35.13-1.95s.08-1.2.13-1.8c.05-.6.1-1.29.14-2.05.02-.53.08-.84.18-.94.05-.05.11-.08.18-.09.07-.01.2-.02.4-.02h1.41c.72,0,1.32.08,1.8.25.48.17.87.4,1.15.68s.49.62.61.99c.12.37.18.76.18,1.17-.1,1.2-.18,2.3-.25,3.3-.07,1-.16,2.13-.25,3.41-.1,1.27-.19,2.59-.29,3.95-.1,1.36-.19,2.7-.29,4.04-.1,1.33-.19,2.56-.29,3.68-.1,1.12-.17,2.08-.23,2.88-.06.81-.1,1.34-.13,1.6-.05.29-.11.48-.18.58-.07.1-.28.14-.61.14h-1.3c-.5,0-.98-.04-1.42-.13-.45-.08-.83-.23-1.15-.43-.32-.2-.58-.48-.76-.83-.18-.35-.27-.8-.27-1.35-.43.91-1.09,1.66-1.96,2.24-.88.58-1.98.87-3.3.87Zm3.14-15.75c-1.23,0-2.13.54-2.72,1.6s-.88,2.5-.88,4.31c0,.62.04,1.24.13,1.84.08.6.23,1.14.45,1.62.22.48.51.87.88,1.15.37.29.85.43,1.42.43,1.03,0,1.9-.5,2.6-1.51.7-1.01,1.05-2.6,1.05-4.76,0-.6-.04-1.18-.11-1.75-.07-.56-.22-1.06-.43-1.5s-.52-.78-.9-1.04c-.38-.26-.88-.4-1.48-.4Z"/>
      <path class="cls-9" d="m249.06,125.85c0,.55-.04,1.21-.11,1.96-.07.76-.15,1.51-.23,2.27-.08.76-.16,1.47-.23,2.13-.07.66-.11,1.17-.11,1.53,0,.91.22,1.59.67,2.04.44.44.99.67,1.64.67,1.13,0,2.03-.59,2.7-1.77.67-1.18,1.09-2.74,1.26-4.69l.58-6.74c.02-.26.11-.45.27-.56.16-.11.33-.16.52-.16h1.3c.5,0,.98.04,1.42.13.44.08.83.24,1.17.47.34.23.6.54.79.92.19.38.29.88.29,1.48,0,.24-.02.69-.05,1.35s-.1,1.61-.18,2.85c-.08,1.24-.2,2.8-.34,4.69-.14,1.89-.31,4.19-.5,6.9-.12,1.59-.48,2.9-1.06,3.95-.59,1.04-1.33,1.87-2.22,2.49-.89.61-1.89,1.04-2.99,1.28-1.11.24-2.24.36-3.39.36-1.23,0-2.35-.11-3.37-.33-1.02-.22-1.9-.52-2.65-.9-.75-.38-1.33-.83-1.75-1.33-.42-.5-.63-1.05-.63-1.62,0-.46.1-.85.31-1.19.2-.34.47-.61.81-.83.34-.22.73-.38,1.17-.49.44-.11.91-.16,1.39-.16.24,0,.41.12.52.36.11.24.28.51.5.81.23.3.59.57,1.1.81.5.24,1.26.36,2.27.36.89,0,1.61-.22,2.16-.65.55-.43.98-.99,1.28-1.66.3-.67.5-1.41.59-2.2.1-.79.14-1.55.14-2.27-.38.67-.81,1.22-1.28,1.64-.47.42-.96.75-1.46.97-.5.23-1.01.38-1.51.45-.5.07-.99.11-1.44.11-.89,0-1.7-.12-2.43-.36-.73-.24-1.36-.63-1.89-1.17-.53-.54-.94-1.24-1.23-2.11s-.43-1.91-.43-3.14c0-.46.02-1.06.07-1.82.05-.76.11-1.61.18-2.56.07-.95.15-1.98.23-3.08.08-1.11.17-2.24.27-3.39.05-.75.38-1.12,1.01-1.12h1.15c.77,0,1.39.07,1.88.22.48.14.86.35,1.14.63s.46.62.56,1.04c.1.42.14.9.14,1.42Z"/>
      <path class="cls-9" d="m279.67,127.4c-.07.91-.15,1.81-.23,2.7-.08.89-.16,1.73-.23,2.52-.07.79-.13,1.5-.16,2.13s-.05,1.11-.05,1.44c0,.63.07,1.04.22,1.24.14.2.38.31.72.31.26,0,.49-.05.69-.14.19-.1.37-.2.54-.32.17-.12.32-.23.45-.32.13-.1.28-.14.45-.14s.32.1.47.29c.14.19.22.64.22,1.33,0,1.32-.36,2.37-1.08,3.14-.72.77-1.96,1.15-3.71,1.15s-3.01-.4-3.84-1.21c-.83-.8-1.24-2.04-1.24-3.69,0-.36.02-.79.05-1.28.04-.49.09-1.14.16-1.93.07-.79.16-1.77.27-2.92.11-1.15.22-2.58.34-4.29h-1.91c-.19,0-.31-.04-.34-.13-.04-.08-.05-.21-.05-.38l.11-1.84c.02-.31.07-.62.13-.92.06-.3.18-.57.36-.81.18-.24.44-.43.77-.58.34-.14.78-.22,1.33-.22.17-.43.36-.95.58-1.55s.43-1.18.65-1.75c.22-.56.43-1.04.63-1.42.2-.38.39-.58.56-.58h1.05c1.01,0,1.71.31,2.09.94.38.63.58,1.37.58,2.24,0,.48-.04,1.19-.11,2.13h3.79c.38,0,.58.17.58.5l-.14,1.95c-.05.72-.25,1.3-.59,1.75-.35.45-1.06.67-2.15.67h-1.91Z"/>
      <path class="cls-9" d="m294.12,142.72c-1.66,0-3.03-.23-4.13-.7s-1.96-1.11-2.61-1.93c-.65-.82-1.11-1.77-1.37-2.87-.26-1.09-.4-2.26-.4-3.51,0-1.44.17-2.85.52-4.24.35-1.38.94-2.61,1.78-3.69.84-1.08,1.95-1.95,3.33-2.61,1.38-.66,3.11-.99,5.17-.99,3.03,0,5.2.74,6.51,2.22,1.31,1.48,1.96,3.55,1.96,6.22,0,.75-.05,1.57-.16,2.47s-.31,1.8-.61,2.69c-.3.89-.71,1.75-1.23,2.6-.52.84-1.17,1.59-1.96,2.24-.79.65-1.75,1.17-2.87,1.55-1.12.38-2.43.58-3.95.58Zm1.69-15.75c-.91,0-1.64.23-2.18.7-.54.47-.95,1.03-1.23,1.69s-.46,1.36-.54,2.09c-.08.73-.13,1.35-.13,1.86,0,1.59.25,2.75.76,3.5s1.23,1.12,2.16,1.12c.84,0,1.53-.26,2.07-.79.54-.53.96-1.17,1.26-1.91s.5-1.53.61-2.34c.11-.82.16-1.5.16-2.05,0-1.2-.22-2.15-.67-2.83s-1.21-1.03-2.29-1.03Z"/>
      <path class="cls-9" d="m327.15,138.11c-.6,1.08-1.33,1.88-2.2,2.4s-1.95.78-3.24.78c-.99,0-1.89-.16-2.7-.47-.82-.31-1.51-.81-2.09-1.48-.58-.67-1.03-1.52-1.35-2.54-.32-1.02-.49-2.24-.49-3.66,0-1.15.12-2.37.36-3.66.24-1.29.68-2.47,1.32-3.55.64-1.08,1.51-1.98,2.61-2.69s2.52-1.06,4.25-1.06c.72,0,1.34.08,1.86.23s.96.37,1.33.63c.37.26.67.58.9.94s.4.75.52,1.15c0,.02,0-.07.02-.27.01-.2.03-.44.05-.7.02-.26.04-.52.05-.77.01-.25.02-.42.02-.49.02-.24.18-.36.47-.36h1.66c1.25,0,2.16.26,2.72.78s.85,1.5.85,2.94c0,.19-.01.63-.04,1.32-.02.68-.07,1.51-.13,2.47-.06.96-.14,2.02-.23,3.19-.1,1.17-.21,2.34-.33,3.51-.12,1.18-.25,2.31-.4,3.39-.14,1.08-.3,2.03-.47,2.85-.17.82-.46,1.61-.87,2.38-.41.77-.99,1.45-1.73,2.05s-1.7,1.08-2.87,1.44c-1.17.36-2.59.54-4.27.54-1.27,0-2.39-.12-3.33-.36s-1.74-.56-2.36-.96-1.1-.85-1.42-1.35-.49-1.01-.49-1.51c0-.46.1-.85.29-1.19.19-.34.44-.61.76-.83.31-.22.66-.38,1.03-.49.37-.11.73-.16,1.06-.16.41,0,.71.12.9.36.19.24.41.51.65.81s.58.57,1.01.81,1.1.36,2.02.36c1.59,0,2.7-.58,3.33-1.75.64-1.17.96-2.84.96-5.03Zm-3.03-1.62c.87,0,1.54-.2,2.04-.61.49-.41.87-.9,1.14-1.48.26-.58.43-1.18.5-1.8.07-.62.11-1.17.11-1.62,0-1.44-.22-2.47-.67-3.08-.45-.61-1.11-.92-2-.92s-1.59.24-2.09.72c-.5.48-.88,1.05-1.14,1.71-.25.66-.41,1.32-.49,1.98s-.11,1.17-.11,1.53c0,1.2.2,2.1.61,2.69.41.59,1.1.88,2.09.88Z"/>
      <path class="cls-9" d="m345.57,142.72c-1.06,0-2.11-.13-3.15-.4-1.04-.26-1.98-.72-2.81-1.37-.83-.65-1.51-1.51-2.04-2.6-.53-1.08-.79-2.44-.79-4.07,0-.6.05-1.32.14-2.16.1-.84.28-1.71.56-2.6.28-.89.66-1.77,1.15-2.65.49-.88,1.14-1.66,1.93-2.36s1.75-1.26,2.88-1.7,2.48-.65,4.04-.65c1.25,0,2.31.14,3.17.43s1.56.68,2.09,1.17c.53.49.91,1.06,1.15,1.71.24.65.36,1.35.36,2.09,0,1.11-.22,2.04-.67,2.81-.44.77-1.02,1.41-1.73,1.93s-1.5.92-2.36,1.21c-.87.29-1.72.51-2.56.67-.84.16-1.62.25-2.33.29s-1.26.05-1.64.05c0,.46.07.91.2,1.35.13.44.33.83.59,1.17.26.34.61.61,1.04.83.43.22.96.33,1.59.33s1.11-.1,1.46-.31c.35-.2.63-.43.85-.69.22-.25.4-.48.56-.68s.37-.31.63-.31c.12,0,.33.03.63.09.3.06.61.19.92.38.31.19.59.46.83.79.24.34.36.77.36,1.3,0,.7-.22,1.3-.65,1.8s-.99.91-1.68,1.23c-.69.31-1.45.54-2.29.69-.84.14-1.66.22-2.45.22Zm.69-15.75c-.53,0-.98.15-1.35.45-.37.3-.68.68-.94,1.14-.25.46-.45.96-.58,1.51-.13.55-.23,1.08-.31,1.59,1.49-.02,2.7-.28,3.62-.76s1.39-1.17,1.39-2.06c0-.48-.15-.91-.45-1.3-.3-.38-.76-.58-1.39-.58Z"/>
      <path class="cls-9" d="m364.17,127.4c-.07.91-.15,1.81-.23,2.7-.08.89-.16,1.73-.23,2.52-.07.79-.13,1.5-.16,2.13-.04.62-.05,1.11-.05,1.44,0,.63.07,1.04.22,1.24.14.2.38.31.72.31.26,0,.49-.05.68-.14.19-.1.37-.2.54-.32s.32-.23.45-.32c.13-.1.28-.14.45-.14s.32.1.47.29c.14.19.22.64.22,1.33,0,1.32-.36,2.37-1.08,3.14s-1.96,1.15-3.71,1.15-3.01-.4-3.84-1.21c-.83-.8-1.24-2.04-1.24-3.69,0-.36.02-.79.05-1.28.04-.49.09-1.14.16-1.93s.16-1.77.27-2.92c.11-1.15.22-2.58.34-4.29h-1.91c-.19,0-.31-.04-.34-.13s-.05-.21-.05-.38l.11-1.84c.02-.31.07-.62.13-.92.06-.3.18-.57.36-.81.18-.24.44-.43.78-.58.34-.14.78-.22,1.33-.22.17-.43.36-.95.58-1.55.22-.6.43-1.18.65-1.75.22-.56.43-1.04.63-1.42.2-.38.39-.58.56-.58h1.04c1.01,0,1.71.31,2.09.94.38.63.58,1.37.58,2.24,0,.48-.04,1.19-.11,2.13h3.79c.38,0,.58.17.58.5l-.14,1.95c-.05.72-.25,1.3-.59,1.75-.35.45-1.06.67-2.15.67h-1.91Z"/>
      <path class="cls-9" d="m387.64,137.93c.7,0,1.3-.1,1.82-.29.52-.19.97-.41,1.35-.65.38-.24.71-.46.97-.65.26-.19.5-.29.72-.29.55,0,.83.36.83,1.08,0,.17-.04.4-.11.7-.07.3-.17.61-.29.94s-.25.63-.38.92c-.13.29-.26.5-.38.65-.12.12-.33.31-.63.58-.3.26-.7.53-1.21.79s-1.09.5-1.77.7c-.67.2-1.42.31-2.24.31-.91,0-1.86-.14-2.83-.41-.97-.28-1.86-.76-2.65-1.44s-1.45-1.61-1.96-2.78c-.52-1.17-.77-2.62-.77-4.38,0-.62.04-1.34.13-2.14.08-.81.26-1.63.52-2.49.26-.85.62-1.69,1.06-2.52.44-.83,1.04-1.57,1.78-2.22.75-.65,1.64-1.17,2.69-1.57,1.04-.4,2.29-.59,3.73-.59,1.18,0,2.19.14,3.05.42.85.28,1.56.65,2.11,1.12s.97,1.02,1.24,1.64.42,1.3.42,2.02c0,1.3-.41,2.25-1.23,2.87-.82.61-1.97.92-3.46.92-.36,0-.61-.03-.74-.09-.13-.06-.2-.2-.2-.42,0-.58-.01-1.09-.04-1.55-.02-.46-.09-.84-.2-1.15s-.27-.55-.49-.72c-.22-.17-.53-.25-.94-.25-.75,0-1.34.24-1.79.72-.44.48-.78,1.06-1.01,1.75-.23.68-.37,1.39-.43,2.11-.06.72-.09,1.32-.09,1.8,0,1.71.27,2.9.81,3.57s1.4,1.01,2.58,1.01Z"/>
      <path class="cls-9" d="m404.94,142.72c-1.66,0-3.04-.23-4.13-.7-1.09-.47-1.96-1.11-2.61-1.93-.65-.82-1.11-1.77-1.37-2.87-.26-1.09-.4-2.26-.4-3.51,0-1.44.17-2.85.52-4.24.35-1.38.94-2.61,1.78-3.69.84-1.08,1.95-1.95,3.33-2.61,1.38-.66,3.11-.99,5.17-.99,3.03,0,5.2.74,6.51,2.22,1.31,1.48,1.96,3.55,1.96,6.22,0,.75-.05,1.57-.16,2.47-.11.9-.31,1.8-.61,2.69-.3.89-.71,1.75-1.23,2.6-.52.84-1.17,1.59-1.96,2.24-.79.65-1.75,1.17-2.87,1.55-1.12.38-2.43.58-3.95.58Zm1.69-15.75c-.91,0-1.64.23-2.18.7-.54.47-.95,1.03-1.23,1.69s-.46,1.36-.54,2.09c-.08.73-.13,1.35-.13,1.86,0,1.59.25,2.75.76,3.5.5.75,1.23,1.12,2.16,1.12.84,0,1.53-.26,2.07-.79.54-.53.96-1.17,1.26-1.91s.5-1.53.61-2.34c.11-.82.16-1.5.16-2.05,0-1.2-.22-2.15-.67-2.83-.45-.68-1.21-1.03-2.29-1.03Z"/>
      <path class="cls-9" d="m426.5,142.72c-1.66,0-3.04-.23-4.13-.7-1.09-.47-1.96-1.11-2.61-1.93-.65-.82-1.11-1.77-1.37-2.87-.26-1.09-.4-2.26-.4-3.51,0-1.44.17-2.85.52-4.24.35-1.38.94-2.61,1.78-3.69.84-1.08,1.95-1.95,3.33-2.61,1.38-.66,3.11-.99,5.17-.99,3.03,0,5.2.74,6.51,2.22,1.31,1.48,1.96,3.55,1.96,6.22,0,.75-.05,1.57-.16,2.47-.11.9-.31,1.8-.61,2.69-.3.89-.71,1.75-1.23,2.6-.52.84-1.17,1.59-1.96,2.24-.79.65-1.75,1.17-2.87,1.55-1.12.38-2.43.58-3.95.58Zm1.69-15.75c-.91,0-1.64.23-2.18.7-.54.47-.95,1.03-1.23,1.69s-.46,1.36-.54,2.09c-.08.73-.13,1.35-.13,1.86,0,1.59.25,2.75.76,3.5.5.75,1.23,1.12,2.16,1.12.84,0,1.53-.26,2.07-.79.54-.53.96-1.17,1.26-1.91s.5-1.53.61-2.34c.11-.82.16-1.5.16-2.05,0-1.2-.22-2.15-.67-2.83-.45-.68-1.21-1.03-2.29-1.03Z"/>
      <path class="cls-9" d="m457.11,139.44c0,.12-.06.36-.18.72s-.31.73-.58,1.12c-.26.38-.59.72-.99,1.01s-.87.43-1.42.43c-.65,0-1.29-.22-1.93-.65s-1.27-1.02-1.89-1.77-1.26-1.63-1.89-2.65c-.64-1.02-1.28-2.13-1.93-3.33-.1,1.27-.19,2.52-.29,3.75-.1,1.23-.19,2.42-.29,3.57-.02.29-.08.48-.18.58s-.3.14-.61.14h-1.3c-.75,0-1.36-.08-1.84-.23s-.85-.38-1.12-.67c-.26-.29-.45-.65-.56-1.1-.11-.44-.16-.96-.16-1.53,0-.29.01-.59.04-.9.02-.31.06-.76.11-1.33.05-.58.11-1.33.2-2.27s.19-2.17.31-3.71c.12-1.54.26-3.43.42-5.68.16-2.25.33-4.98.52-8.2.02-.53.08-.84.18-.94.07-.07.26-.11.58-.11h1.41c.74,0,1.36.08,1.84.25.48.17.87.4,1.15.68s.49.62.59,1.01.16.78.16,1.19c0,.24-.02.64-.05,1.21-.04.57-.08,1.25-.13,2.06-.05.81-.11,1.71-.2,2.72-.08,1.01-.16,2.07-.23,3.17l5.77-5.26c.22-.19.42-.33.59-.4.18-.07.32-.11.42-.11.26,0,.55.17.87.5.31.34.61.73.88,1.17.28.44.5.9.69,1.37.18.47.27.85.27,1.14,0,.7-.56,1.43-1.68,2.2-1.12.77-2.81,1.63-5.07,2.6,1.01,1.13,1.97,2.16,2.88,3.1.91.94,1.71,1.77,2.4,2.49.69.72,1.23,1.31,1.64,1.77.41.46.61.76.61.9Z"/>
      <path class="cls-9" d="m463.13,142.36c-.75,0-1.35-.08-1.82-.23s-.84-.38-1.12-.67-.47-.64-.58-1.06c-.11-.42-.16-.91-.16-1.46,0-.36.02-.87.05-1.53s.1-1.57.2-2.74c.1-1.17.21-2.64.34-4.43.13-1.79.29-4.01.49-6.65.02-.53.08-.84.18-.94.07-.07.26-.11.58-.11h1.41c.74,0,1.35.07,1.82.22.47.14.84.36,1.12.65.28.29.47.64.58,1.05s.16.87.16,1.37c0,.36-.02.9-.07,1.62-.05.72-.12,1.7-.2,2.94-.08,1.24-.2,2.78-.34,4.62-.14,1.84-.32,4.06-.54,6.65-.02.29-.08.48-.18.58-.1.1-.3.14-.61.14h-1.3Zm-2.56-24.08c0-.96.35-1.72,1.04-2.27.7-.55,1.63-.83,2.81-.83,1.03,0,1.78.21,2.25.63.47.42.7.98.7,1.68,0,.89-.33,1.63-.99,2.22-.66.59-1.63.88-2.9.88-1.95,0-2.92-.77-2.92-2.31Z"/>
      <path class="cls-9" d="m481.84,139.19c0-.53.04-1.22.13-2.07s.17-1.75.25-2.7c.08-.95.17-1.87.25-2.76.08-.89.13-1.63.13-2.24s-.15-1.18-.45-1.68c-.3-.49-.88-.74-1.75-.74s-1.54.2-2.09.61c-.55.41-1.02,1.15-1.39,2.24-.37,1.08-.68,2.57-.92,4.47-.24,1.9-.47,4.34-.69,7.32-.02.29-.08.48-.18.58s-.3.14-.61.14h-1.3c-.75,0-1.35-.08-1.82-.23s-.84-.38-1.12-.67-.47-.64-.58-1.06c-.11-.42-.16-.91-.16-1.46,0-.36.02-.87.05-1.53s.1-1.57.2-2.74c.1-1.17.21-2.64.34-4.43.13-1.79.29-4.01.49-6.65.02-.53.08-.84.18-.94.07-.07.26-.11.58-.11h1.41c.72,0,1.32.08,1.78.25s.85.39,1.14.67c.29.28.49.6.61.97.12.37.19.75.22,1.14.75-1.27,1.6-2.16,2.56-2.65s2.16-.74,3.61-.74c1.01,0,1.89.11,2.63.32.74.22,1.36.58,1.86,1.1.49.52.86,1.19,1.1,2.02.24.83.36,1.86.36,3.08,0,.38-.02.94-.07,1.66s-.11,1.51-.18,2.36c-.07.85-.15,1.74-.23,2.67-.08.92-.16,1.78-.23,2.58s-.13,1.49-.18,2.09c-.05.6-.07,1-.07,1.19,0,.53-.06.85-.18.96-.12.11-.38.16-.79.16h-1.15c-.77,0-1.39-.07-1.87-.22-.48-.14-.85-.35-1.12-.61s-.45-.59-.56-.99-.16-.85-.16-1.35Z"/>
      <path class="cls-9" d="m501.16,132.7c-.17.34-.31.54-.43.61s-.28.11-.47.11h-1.3c-.94,0-1.61-.2-2.02-.59-.41-.4-.61-.88-.61-1.46s.15-1.09.45-1.6c.3-.52.68-1.02,1.14-1.5.46-.48.94-.96,1.46-1.42.52-.47,1-.94,1.46-1.41.46-.47.83-.95,1.14-1.44.3-.49.45-1.01.45-1.57s-.19-1.11-.56-1.6c-.37-.49-.98-.74-1.82-.74-.65,0-1.17.13-1.57.4s-.72.6-.96,1.01c-.24.41-.42.86-.54,1.35-.12.49-.23.98-.33,1.46-.05.26-.13.44-.23.52-.11.08-.38.13-.81.13-1.47,0-2.51-.26-3.12-.78-.61-.52-.92-1.32-.92-2.4s.27-2.1.81-2.92,1.25-1.49,2.13-2.02c.88-.53,1.88-.92,2.99-1.17,1.12-.25,2.25-.38,3.41-.38,1.37,0,2.54.17,3.51.52.97.35,1.77.82,2.4,1.41.62.59,1.09,1.27,1.39,2.05.3.78.45,1.59.45,2.43,0,1.27-.31,2.4-.94,3.39-.63.99-1.36,1.9-2.2,2.74s-1.68,1.65-2.51,2.42c-.83.77-1.45,1.59-1.86,2.45Zm-2.7,3.25c1.01,0,1.73.25,2.16.74s.65,1.18.65,2.07c0,.38-.05.81-.14,1.26-.1.46-.27.88-.52,1.28-.25.4-.61.73-1.08,1.01-.47.28-1.08.41-1.82.41-1.08,0-1.81-.28-2.2-.85s-.58-1.27-.58-2.11c0-.48.06-.95.18-1.41.12-.46.31-.87.58-1.23.26-.36.62-.65,1.08-.87.46-.22,1.02-.32,1.69-.32Z"/>
    </g>
  </g>
</svg>